
<svg xmlns="http://www.w3.org/2000/svg" xml:space="preserve" width="27.089mm" height="22.6034mm" version="1.1" style="shape-rendering:geometricPrecision; text-rendering:geometricPrecision; image-rendering:optimizeQuality; fill-rule:evenodd; clip-rule:evenodd"
viewBox="0 0 2709 2260"
 xmlns:xlink="http://www.w3.org/1999/xlink">
 <defs>
  <style type="text/css">
   <![CDATA[
    .fil0 {fill:white}
   ]]>
  </style>
 </defs>
 <g id="Слой_x0020_1">
  <metadata id="CorelCorpID_0Corel-Layer"/>
  <path class="fil0" d="M1194 2133l65 52c78,-96 124,-213 133,-336 1,-17 2,-34 2,-51 -9,-213 -34,-425 -75,-635l-82 15c40,204 64,412 73,620 0,15 -1,30 -2,45 -7,106 -47,207 -114,290l0 0zm1372 -996c32,59 121,208 138,261 5,10 6,21 3,31 -3,10 -10,19 -20,24 -96,52 -194,102 -291,153 -27,13 -46,35 -57,60 -11,26 -13,55 -5,82 25,86 20,178 -13,260 -32,79 -89,149 -170,195 -62,36 -130,53 -197,53 -66,0 -132,-16 -191,-49l-22 22c-21,21 -48,31 -76,31 -27,0 -54,-10 -75,-31l0 0c-21,-21 -32,-48 -32,-76 0,-27 11,-55 32,-76l20 -20c-2,-4 -4,-8 -6,-12 -50,-94 -58,-199 -31,-293 27,-95 89,-179 179,-232 6,-4 11,-7 17,-10l184 -97c10,-5 21,-6 31,-3 11,3 19,10 25,20l31 60 104 -55 -32 -59c-5,-10 -6,-22 -2,-32 3,-10 10,-19 20,-24l381 -201c10,-5 21,-6 31,-3 10,4 19,10 24,21zm-450 159c-10,4 -21,5 -32,1l0 0c-11,-5 -18,-13 -22,-23 -5,-9 -5,-21 -1,-31l40 -97c4,-10 12,-18 22,-22 9,-4 20,-5 30,-1l2 1c10,4 18,12 22,22 4,10 5,21 0,31l-39 97c-5,11 -13,18 -22,22zm-206 98l-100 -22c-11,-3 -20,-9 -26,-18 -6,-9 -8,-20 -6,-31 3,-11 10,-21 18,-26 9,-6 20,-8 32,-6l100 22c11,2 20,9 26,18 5,9 8,19 6,30l-1 1c-2,11 -9,20 -18,26 -8,5 -19,8 -30,6l-1 0zm41 -111l-49 -93c-6,-11 -6,-22 -3,-32 3,-10 10,-19 20,-24 10,-5 21,-6 31,-3 10,3 19,10 25,20l49 94c5,10 6,21 3,31 -4,10 -10,19 -21,24 -10,6 -21,6 -31,3 -10,-3 -19,-10 -24,-20zm205 465l2 3c28,56 31,118 13,175 -18,56 -57,106 -113,136l-3 2c-57,29 -118,33 -173,16 -55,-17 -103,-54 -132,-108l-2 -3c-28,-56 -31,-118 -13,-175 18,-56 57,-106 113,-136l3 -2c56,-28 118,-33 173,-16 55,17 103,54 132,108zm-139 242l2 -1c36,-19 62,-52 74,-88 11,-36 10,-76 -8,-112l-2 -2c-18,-34 -49,-58 -84,-68 -34,-11 -74,-8 -110,11l-2 1c-36,19 -62,52 -74,88 -12,36 -10,76 9,112l1 2c18,34 48,58 83,68 35,11 75,8 111,-11zm-352 188c7,0 13,-3 18,-7l11 -12c-6,-5 -12,-11 -18,-16 -6,-6 -11,-12 -17,-18l-11 11c-5,4 -7,11 -7,17 0,6 2,13 7,18 5,4 11,7 17,7zm598 -544c19,-43 51,-79 95,-102l254 -132 -99 -189 -308 163 31 60c5,10 6,21 3,31 -3,10 -10,19 -20,24l-177 93c-10,5 -21,6 -31,3 -11,-3 -19,-10 -25,-20l-31 -60 -152 81c-75,41 -127,108 -149,184 -23,76 -17,161 23,236l5 10c43,74 111,125 187,146 76,22 161,14 236,-27l5 -3c63,-36 110,-91 135,-155 26,-64 30,-136 10,-205 -14,-47 -10,-96 8,-138zm-1769 93l43 -71c-134,-75 -286,-113 -439,-109 -33,0 -66,1 -98,5l0 84c32,-4 65,-6 98,-5 138,-5 275,29 396,96l0 0zm1401 -1602l-209 0 0 -41c0,-24 -18,-42 -42,-42l-250 0c-23,0 -42,18 -42,42l0 292 -167 0c0,-69 -57,-125 -126,-125 -14,0 -28,3 -42,8l0 -8c0,-69 -56,-126 -125,-126 -14,1 -29,3 -42,8l0 -8c0,-62 -46,-116 -109,-124 -62,-8 -121,31 -137,92 -39,-16 -82,-11 -117,12 -35,23 -55,62 -55,104l0 167 -432 0 0 84 288 0c-41,46 -64,105 -65,167l-223 0 0 84 236 0c20,58 60,107 113,138l167 95 0 506c-134,-49 -276,-73 -418,-70 -35,0 -67,1 -98,4l0 83c31,-2 63,-4 98,-4 430,0 593,192 594,194l65 -53c-44,-49 -98,-88 -158,-117l0 -567c0,-15 -8,-29 -21,-37l-187 -107c-53,-30 -85,-87 -84,-149 0,-76 51,-142 125,-161l0 119 84 0 0 -376c0,-23 18,-42 41,-42 23,0 42,19 42,42l0 125 84 0 0 -209c0,-23 19,-41 42,-41 23,0 41,18 41,41l0 251 84 0 0 -125c0,-23 19,-42 42,-42 23,0 42,19 42,42l0 167 83 0 0 -42c0,-23 19,-42 42,-42 23,0 42,19 42,42l0 367 -79 158c-5,9 -6,18 -4,28 1,5 125,584 125,869 0,11 -1,22 -1,32 -19,198 -186,347 -385,344l-757 0 0 84 757 0c242,3 446,-181 468,-421 1,-13 1,-26 1,-39 0,-272 -103,-779 -123,-873l77 -154c3,-6 5,-12 5,-18l0 -42 167 0 0 292c0,23 19,42 42,42l250 0c24,0 42,-19 42,-42l0 -41 209 0c23,0 42,-19 42,-42l0 -753c0,-23 -19,-42 -42,-42l0 0zm-710 502l0 -167 167 0 0 167 -167 0zm418 335l-168 0 0 -837 168 0 0 837zm83 -84l0 -669 168 0 0 125 -84 0 0 84 84 0 0 84 -84 0 0 83 84 0 0 84 -84 0 0 84 84 0 0 125 -168 0z"/>
 </g>
</svg>
