<?xml version="1.0" encoding="UTF-8"?>
<!DOCTYPE svg PUBLIC "-//W3C//DTD SVG 1.1//EN" "http://www.w3.org/Graphics/SVG/1.1/DTD/svg11.dtd">
<!-- Creator: CorelDRAW X8 -->
<svg xmlns="http://www.w3.org/2000/svg" xml:space="preserve" width="22.577mm" height="22.5778mm" version="1.1" style="shape-rendering:geometricPrecision; text-rendering:geometricPrecision; image-rendering:optimizeQuality; fill-rule:evenodd; clip-rule:evenodd"
viewBox="0 0 2258 2258"
 xmlns:xlink="http://www.w3.org/1999/xlink">
 <defs>
  <style type="text/css">
   <![CDATA[
    .fil0 {fill : white}
   ]]>
  </style>
 </defs>
 <g id="Слой_x0020_1">
  <metadata id="CorelCorpID_0Corel-Layer"/>
  <path class="fil0" d="M1543 1174l0 42 -264 0 0 -1065c0,-84 -67,-151 -150,-151l-978 0c-84,0 -151,67 -151,151l0 1956c0,83 67,151 151,151l978 0c83,0 150,-68 150,-151l0 -816 301 0c21,0 38,-17 38,-37l0 -80 -75 0zm-743 595l263 0 0 -76 -263 0 0 76zm-254 0l188 0 0 -76 -188 0 0 76zm-330 0l264 0 0 -76 -264 0 0 76zm0 187l847 0 0 -76 -847 0 0 76zm-24 -945l-67 34c76,151 232,247 402,246l0 -75c-142,0 -271,-79 -335,-205zm594 -284l-34 -268c-2,-19 -18,-33 -36,-33l-1 0c-18,0 -34,13 -37,31l-46 273 -31 -125c-5,-20 -26,-33 -46,-27 -8,2 -16,6 -21,13l-101 136 -94 0 0 75 113 0c11,0 23,-6 30,-15l65 -87 56 224c4,17 19,29 37,29l1 0c18,-1 33,-14 36,-32l33 -197 5 45c3,19 19,33 38,33l188 0 0 -75 -155 0zm968 146c-33,-33 -83,-38 -121,-12l-41 27c-7,5 -16,5 -23,0l-41 -27c-44,-30 -104,-18 -133,26 -26,38 -21,89 12,122l105 105c38,38 99,38 136,0l106 -105c37,-38 37,-99 0,-136zm-53 83l0 0 -106 105c-8,8 -21,8 -29,0l-106 -105c-8,-8 -8,-22 0,-30 7,-7 18,-8 27,-3l40 27c33,22 75,22 107,0l41 -27c9,-6 22,-4 29,6 5,8 4,19 -3,27zm518 -33l-44 -44c-131,-132 -299,-222 -481,-258 155,-104 198,-314 94,-470 -63,-94 -169,-151 -282,-151l-151 0 0 75 151 0c146,0 264,118 264,264 0,145 -118,263 -264,263l-1 0 1 75c231,0 453,92 616,255l44 44c22,22 22,58 0,79l-18 19c-22,21 -57,21 -79,0 -51,-51 -134,-51 -186,0 -24,24 -38,58 -38,93l0 960c0,30 -25,55 -56,56l-39 0c-31,-1 -55,-26 -56,-56l0 -415c0,-73 -58,-131 -131,-132l-208 0 0 76 208 0c31,0 56,25 56,56l0 415c0,72 59,131 131,131l39 0c72,0 131,-59 131,-131l0 -960c0,-31 25,-56 56,-56 15,0 29,6 40,16 52,50 133,50 185,0l18 -18c51,-51 51,-134 0,-186zm-1015 1184c0,42 -34,76 -75,76l-978 0c-42,0 -76,-34 -76,-76l0 -47 0 -66 0 -75 0 -87 0 -1432 0 -61 0 -76 0 -91 0 -21c0,-42 34,-76 76,-76l978 0c41,0 75,34 75,76l0 21c0,407 0,637 0,1044l-527 0 0 -40c249,-20 433,-239 413,-487 -21,-249 -239,-433 -488,-413 -248,21 -433,239 -412,488 18,220 192,394 412,412l0 78c0,20 17,37 38,37l564 0 0 541 0 87 0 75 0 66 0 47zm-564 -1004c-208,0 -377,-168 -377,-376 0,-208 169,-377 377,-377 208,0 376,169 376,377 0,207 -169,376 -376,376z"/>
 </g>
</svg>
