<?xml version="1.0" encoding="UTF-8"?>
<!DOCTYPE svg PUBLIC "-//W3C//DTD SVG 1.1//EN" "http://www.w3.org/Graphics/SVG/1.1/DTD/svg11.dtd">
<!-- Creator: CorelDRAW X8 -->
<svg xmlns="http://www.w3.org/2000/svg" xml:space="preserve" width="34.886mm" height="22.5776mm" version="1.1" style="shape-rendering:geometricPrecision; text-rendering:geometricPrecision; image-rendering:optimizeQuality; fill-rule:evenodd; clip-rule:evenodd"
viewBox="0 0 3454 2235"
 xmlns:xlink="http://www.w3.org/1999/xlink">
 <defs>
  <style type="text/css">
   <![CDATA[
    .fil0 {fill:white}
   ]]>
  </style>
 </defs>
 <g id="Слой_x0020_1">
  <metadata id="CorelCorpID_0Corel-Layer"/>
  <path class="fil0" d="M875 878l0 -77 112 0c60,0 112,-49 112,-112l0 -298c0,-59 -48,-112 -112,-112l-838 0c-60,0 -112,49 -112,112l0 298c0,60 49,112 112,112l112 0 0 77c-147,18 -261,144 -261,295l0 38 0 689 0 37c0,164 134,298 298,298l540 0c164,0 298,-134 298,-298l0 -112 0 -540 0 -112c0,-151 -114,-277 -261,-295zm1591 1242c15,67 76,115 145,115l195 0c70,0 130,-48 145,-115l51 -220 340 0c62,0 112,-50 112,-112 -1,-61 -50,-111 -112,-112l-335 0 0 -80c0,-58 -48,-106 -107,-106 -12,0 -23,-7 -28,-17l-20 -40c-26,-53 -79,-88 -138,-92 -60,-3 -116,25 -149,74l-29 43c-2,3 -5,6 -8,9l-68 44c-31,21 -49,56 -49,93l0 72c-12,0 -22,6 -30,14 -7,9 -9,21 -7,32l92 398zm413 -17c-8,34 -38,58 -73,58l-195 0c-34,0 -65,-24 -72,-58l-82 -352 503 0 -81 352zm489 -341c7,7 11,16 11,26 0,21 -16,37 -37,37l-323 0 17 -74 306 0c10,0 20,4 26,11l0 0zm-883 -158c0,-12 6,-24 17,-31l67 -44c11,-8 21,-18 29,-30l29 -42c18,-28 49,-43 82,-41 33,2 62,21 76,50l20 40c18,36 55,59 95,59 18,0 32,14 32,31l0 80 -447 0 0 -72zm-1111 -1191c40,-139 151,-244 292,-277l0 -24c0,-62 50,-112 111,-112l149 0c62,0 112,50 112,112l0 24c140,33 252,138 292,277 89,15 155,92 155,183l0 149c0,21 -17,37 -37,37l-77 0 -104 1350c-5,58 -53,103 -112,103l-607 0c-58,0 -107,-45 -111,-103l-104 -1350 -77 0c-21,0 -37,-16 -37,-37l0 -149c0,-91 66,-168 155,-183zm552 -338l-149 0c-20,0 -37,16 -37,37 0,20 17,37 37,37l149 0c21,0 38,-17 38,-37 0,-21 -17,-37 -38,-37zm112 139l0 84c0,21 -17,37 -37,37 -21,0 -37,-16 -37,-37l0 -81c-12,4 -25,6 -38,7l-149 0c-12,-1 -25,-3 -37,-7l0 81c0,21 -17,37 -37,37 -21,0 -37,-16 -37,-37l0 -84c-98,28 -177,101 -213,196l797 0c-36,-95 -114,-168 -212,-196l0 0zm-527 1912c2,20 18,35 37,35l608 0c19,0 35,-15 37,-35l103 -1344 -888 0 103 1344zm-218 -1418l1118 0 0 -112c0,-62 -50,-112 -112,-112l-894 0c-62,0 -112,50 -112,112l0 112zm887 298l0 0 -48 745 0 0 -19 300c-2,20 -18,35 -38,35l-2 0c-10,0 -19,-5 -26,-12 -6,-8 -10,-18 -9,-28l5 -72 -154 0c-20,0 -37,-16 -37,-37 0,-20 17,-37 37,-37l159 0 7 -112 -166 0c-20,0 -37,-17 -37,-37 0,-21 17,-37 37,-37l171 0 7 -112 -141 0c-20,0 -37,-17 -37,-37 0,-21 17,-38 37,-38l146 0 7 -111 -153 0c-20,0 -37,-17 -37,-38 0,-20 17,-37 37,-37l158 0 7 -112 -127 0c-21,0 -38,-16 -38,-37 0,-21 17,-37 38,-37l132 0 7 -112 -139 0c-21,0 -38,-17 -38,-37 0,-21 17,-37 38,-37l144 0 5 -77c0,-14 8,-25 20,-31 12,-6 26,-5 38,2 11,7 17,20 16,33l-7 110 0 0zm-1746 594l186 0 -126 145c-15,15 -11,37 4,52 7,4 18,7 26,7 11,0 22,-3 30,-11l178 -208c8,-11 11,-26 4,-41 -8,-15 -19,-22 -34,-22l-186 0 123 -146c15,-15 11,-37 -4,-52 -14,-15 -37,-11 -52,4l-179 208c-7,12 -11,27 -4,41 8,15 19,23 34,23zm-322 -911l0 -37 372 0c19,0 38,-15 38,-37 0,-23 -15,-38 -38,-38l-372 0 0 -74 149 0c18,0 37,-15 37,-37 0,-23 -15,-38 -37,-38l-149 0 0 -37c0,-18 15,-37 37,-37l838 0c19,0 37,15 37,37l0 37 -372 0c-22,0 -37,15 -37,38 0,18 15,37 37,37l372 0 0 74 -149 0c-18,0 -37,15 -37,38 0,18 15,37 37,37l149 0 0 37c0,19 -14,37 -37,37l-149 0 -540 0 -149 0c-19,0 -37,-14 -37,-37zm689 112l0 74 -466 0 0 -74 466 0zm-503 149l540 0c123,0 224,101 224,223l0 0 -987 0 0 0c0,-122 100,-223 223,-223zm764 913l-987 0 0 -615 987 0 0 615 0 0zm-224 298l-540 0c-123,0 -223,-101 -223,-224l0 0 987 0 0 0c0,123 -101,224 -224,224z"/>
 </g>
</svg>
