<?xml version="1.0" encoding="UTF-8"?>
<!DOCTYPE svg PUBLIC "-//W3C//DTD SVG 1.1//EN" "http://www.w3.org/Graphics/SVG/1.1/DTD/svg11.dtd">
<!-- Creator: CorelDRAW X8 -->
<svg xmlns="http://www.w3.org/2000/svg" xml:space="preserve" width="22.7376mm" height="22.7374mm" version="1.1" style="shape-rendering:geometricPrecision; text-rendering:geometricPrecision; image-rendering:optimizeQuality; fill-rule:evenodd; clip-rule:evenodd"
viewBox="0 0 2274 2274"
 xmlns:xlink="http://www.w3.org/1999/xlink">
 <defs>
  <style type="text/css">
   <![CDATA[
    .fil0 {fill:white}
   ]]>
  </style>
 </defs>
 <g id="Слой_x0020_1">
  <metadata id="CorelCorpID_0Corel-Layer"/>
  <path class="fil0" d="M1865 33c88,29 167,77 233,143 65,66 114,145 143,233 29,88 39,186 29,288 -10,101 -39,201 -86,295 -46,94 -109,182 -187,260 -20,19 -40,38 -61,56 -21,17 -42,34 -64,50l-2 1c-9,6 -20,8 -30,6 -10,-2 -20,-7 -27,-16l0 -2c-7,-9 -9,-20 -7,-30 2,-10 8,-20 17,-26 20,-15 40,-31 59,-47 20,-16 38,-33 56,-51 146,-146 230,-327 248,-501 18,-173 -29,-339 -147,-457 -57,-57 -125,-98 -202,-123 -77,-25 -162,-34 -252,-25 -91,9 -182,35 -267,78 -85,42 -166,99 -237,171 -11,11 -22,22 -32,34 -10,11 -20,22 -29,34 7,47 3,96 -12,142 -15,45 -40,87 -76,123 -12,13 -25,24 -39,33 -13,10 -26,18 -41,25 -28,109 -30,216 -9,313 22,97 68,184 137,254 44,43 94,78 151,103 56,25 118,40 184,46 61,5 123,1 185,-11 62,-12 124,-32 185,-61 10,-4 21,-5 31,-1 10,3 18,10 24,20l0 2c5,10 5,21 2,31 -4,10 -11,18 -21,23l-1 1c-57,27 -116,47 -175,61 -59,14 -118,21 -177,21 -10,0 -20,-1 -30,-1 -10,-1 -20,-1 -30,-2 -12,-1 -23,-2 -35,-4 -11,-1 -22,-3 -32,-5l-2 0c-54,1 -168,8 -267,31 -63,15 -119,36 -149,66l-155 155c3,13 3,28 -1,41 -3,15 -11,29 -22,40l-398 398c-9,8 -18,15 -29,19 -10,5 -22,7 -33,7 -12,0 -23,-2 -34,-7 -10,-4 -20,-11 -28,-19l-97 -97c-17,-17 -26,-39 -26,-62 0,-22 9,-45 26,-62l40 -41c9,-8 19,-12 30,-12 11,0 21,4 29,12 9,8 13,19 13,30 0,10 -4,21 -13,29l-40 41c-1,1 -2,2 -2,3 0,1 1,2 2,3l97 97c0,1 2,1 3,1 1,0 2,0 3,-1l398 -398c1,-1 1,-2 1,-3 0,-1 0,-2 -1,-3l-97 -97c-1,0 -1,-1 -2,-1 0,0 -1,0 -1,0 -1,0 -1,0 -2,0 0,0 -1,1 -1,1l-247 247c-8,8 -19,12 -29,12 -11,0 -22,-4 -30,-12 -8,-9 -12,-19 -12,-30 0,-11 4,-21 12,-29l247 -247c8,-8 18,-15 28,-19 11,-4 22,-7 34,-7 4,0 8,1 12,1 2,1 5,1 7,2l155 -156c30,-29 51,-86 66,-149 23,-98 30,-212 31,-266l0 -3c-9,-45 -12,-91 -12,-139 1,-45 6,-90 15,-136 -9,1 -19,2 -29,3 -13,1 -27,1 -40,0 -37,-3 -74,-12 -107,-27 -33,-15 -64,-36 -91,-62l-2 -2c-60,-60 -90,-139 -91,-219 0,-79 30,-159 90,-219l1 -2c61,-61 141,-91 221,-91 79,0 159,30 220,91 13,13 25,28 36,43 8,12 16,25 22,38l12 -13c7,-7 13,-14 20,-20 78,-78 166,-141 260,-188 94,-46 194,-75 295,-85 102,-10 199,0 288,29zm-56 154c66,22 125,57 173,105 48,48 83,106 104,173 21,65 29,139 21,216 -8,82 -32,164 -70,241 -39,77 -91,149 -156,214 -64,65 -137,117 -214,155 -77,39 -159,63 -241,71 -10,1 -20,2 -30,2 -10,1 -20,1 -29,1 -65,0 -127,-11 -183,-33 -56,-22 -105,-54 -147,-95 -48,-48 -83,-107 -104,-173 -21,-66 -29,-139 -21,-216 8,-83 32,-164 71,-241 38,-77 90,-150 155,-214 64,-65 137,-117 214,-156 77,-38 159,-62 241,-70 77,-8 150,-1 216,20zm175 247c-10,-18 -21,-36 -33,-52l-20 19 68 68c-4,-12 -10,-24 -15,-35zm-656 208l-122 122 122 123 122 -123 -122 -122zm-181 426l122 -122 -122 -123 -123 123 123 122zm362 -608l-122 123 123 122 122 -122 -123 -123zm123 486l-122 -123 -123 123 122 122 123 -122zm59 -304l-122 122 122 123 122 -123 -122 -122zm181 -182l-122 123 122 122 123 -122 -123 -123zm0 -118l20 -19c-17,-12 -34,-23 -52,-33 -12,-6 -23,-11 -35,-16l67 68zm-59 59l-122 -122 -123 122 123 123 122 -123zm-211 -151l-1 0c-27,2 -54,7 -81,14 -23,5 -45,12 -68,21l57 57 93 -92zm-152 151l-79 -79c-26,13 -51,29 -75,46 -24,17 -47,35 -69,55l101 101 122 -123zm-181 182l-101 -101c-20,22 -38,45 -55,68 -17,25 -33,50 -46,75l80 80 122 -122zm-260 192c-7,27 -11,54 -14,81l0 1 93 -93 -58 -57c-8,22 -15,45 -21,68zm26 320c10,18 21,35 33,51l20 -19 -68 -68c4,12 10,24 15,36zm112 91l-20 19c17,13 34,24 52,33 12,6 23,12 36,16l-68 -68zm59 -59l122 123 122 -123 -122 -122 -122 122zm211 152l1 0c27,-3 54,-8 81,-14 23,-6 45,-13 68,-21l-58 -58 -92 93zm152 -152l79 80c26,-14 51,-29 75,-46 24,-17 47,-35 69,-55l-101 -101 -122 122zm181 -181l101 101c20,-22 38,-45 55,-69 17,-24 33,-49 46,-75l-80 -80 -122 123zm260 -193c7,-26 11,-53 14,-80l0 -1 -93 92 58 58c8,-23 15,-46 21,-69zm-1503 -204c10,22 25,43 43,61 19,19 39,33 62,44 19,10 40,16 62,20 -4,-22 -11,-42 -20,-62 -11,-22 -26,-43 -44,-61 -18,-19 -39,-33 -61,-44 -20,-10 -41,-16 -62,-20 3,21 10,42 20,62zm531 894c-9,-6 -18,-11 -27,-17l-36 36c7,-1 14,-3 22,-4 16,-3 34,-6 52,-9l-11 -6zm-102 -76c-5,-5 -10,-10 -15,-14 -4,-5 -9,-10 -14,-15l-8 -9 -325 326 45 45 325 -326 -8 -7zm-124 -68l36 -36c-6,-9 -11,-18 -17,-27l-6 -12c-3,19 -6,36 -9,53 -2,8 -3,15 -4,22zm4 -647c21,-11 40,-25 57,-42 17,-17 31,-36 41,-56 10,-19 17,-39 21,-59 -33,-4 -64,-13 -94,-27 -32,-15 -61,-36 -87,-62 -25,-25 -46,-55 -61,-87 -14,-29 -23,-61 -27,-93 -20,4 -40,11 -59,20 -20,11 -40,25 -57,42 -17,17 -31,36 -41,56 -10,19 -17,39 -21,59 33,4 65,13 94,27 32,15 61,36 87,62 26,25 46,55 61,87 14,29 24,61 28,94 20,-5 40,-12 58,-21zm-47 -366c11,22 26,43 44,61 19,19 39,33 62,44 19,10 40,16 61,20 -3,-21 -10,-42 -19,-62 -11,-22 -26,-43 -44,-61 -18,-19 -39,-33 -61,-44 -20,-10 -41,-16 -62,-20 3,22 10,43 19,62z"/>
 </g>
</svg>
